<svg width="24" height="24" viewBox="0 0 24 24" fill="none" xmlns="http://www.w3.org/2000/svg">
<path d="M4 6.0625C4.02344 5.59375 4.1875 5.19531 4.49219 4.86719C4.82031 4.5625 5.21875 4.39844 5.6875 4.375H9.0625C9.53125 4.39844 9.92969 4.5625 10.2578 4.86719C10.5625 5.19531 10.7266 5.59375 10.75 6.0625V9.4375C10.7266 9.90625 10.5625 10.3047 10.2578 10.6328C9.92969 10.9375 9.53125 11.1016 9.0625 11.125H5.6875C5.21875 11.1016 4.82031 10.9375 4.49219 10.6328C4.1875 10.3047 4.02344 9.90625 4 9.4375V6.0625ZM6.25 6.625V8.875H8.5V6.625H6.25ZM4 15.0625C4.02344 14.5938 4.1875 14.1953 4.49219 13.8672C4.82031 13.5625 5.21875 13.3984 5.6875 13.375H9.0625C9.53125 13.3984 9.92969 13.5625 10.2578 13.8672C10.5625 14.1953 10.7266 14.5938 10.75 15.0625V18.4375C10.7266 18.9062 10.5625 19.3047 10.2578 19.6328C9.92969 19.9375 9.53125 20.1016 9.0625 20.125H5.6875C5.21875 20.1016 4.82031 19.9375 4.49219 19.6328C4.1875 19.3047 4.02344 18.9062 4 18.4375V15.0625ZM6.25 15.625V17.875H8.5V15.625H6.25ZM14.6875 4.375H18.0625C18.5312 4.39844 18.9297 4.5625 19.2578 4.86719C19.5625 5.19531 19.7266 5.59375 19.75 6.0625V9.4375C19.7266 9.90625 19.5625 10.3047 19.2578 10.6328C18.9297 10.9375 18.5312 11.1016 18.0625 11.125H14.6875C14.2188 11.1016 13.8203 10.9375 13.4922 10.6328C13.1875 10.3047 13.0234 9.90625 13 9.4375V6.0625C13.0234 5.59375 13.1875 5.19531 13.4922 4.86719C13.8203 4.5625 14.2188 4.39844 14.6875 4.375ZM17.5 6.625H15.25V8.875H17.5V6.625ZM13 13.9375C13.0234 13.5859 13.2109 13.3984 13.5625 13.375H15.8125C16.1641 13.3984 16.3516 13.5859 16.375 13.9375C16.3984 14.2891 16.5859 14.4766 16.9375 14.5H18.0625C18.4141 14.4766 18.6016 14.2891 18.625 13.9375C18.6484 13.5859 18.8359 13.3984 19.1875 13.375C19.5391 13.3984 19.7266 13.5859 19.75 13.9375V17.3125C19.7266 17.6641 19.5391 17.8516 19.1875 17.875H16.9375C16.5859 17.8516 16.3984 17.6641 16.375 17.3125C16.3516 16.9609 16.1641 16.7734 15.8125 16.75C15.4609 16.7734 15.2734 16.9609 15.25 17.3125V19.5625C15.2266 19.9141 15.0391 20.1016 14.6875 20.125H13.5625C13.2109 20.1016 13.0234 19.9141 13 19.5625V13.9375ZM16.9375 20.125C16.5859 20.1016 16.3984 19.9141 16.375 19.5625C16.3984 19.2109 16.5859 19.0234 16.9375 19C17.2891 19.0234 17.4766 19.2109 17.5 19.5625C17.4766 19.9141 17.2891 20.1016 16.9375 20.125ZM19.1875 20.125C18.8359 20.1016 18.6484 19.9141 18.625 19.5625C18.6484 19.2109 18.8359 19.0234 19.1875 19C19.5391 19.0234 19.7266 19.2109 19.75 19.5625C19.7266 19.9141 19.5391 20.1016 19.1875 20.125Z" fill="#606576"/>
</svg>
