<svg width="24" height="25" viewBox="0 0 24 25" fill="none" xmlns="http://www.w3.org/2000/svg">
<g clip-path="url(#clip0_12941_239211)">
<path d="M24 12.7866C24 6.1592 18.6274 0.786621 12 0.786621C5.37258 0.786621 0 6.1592 0 12.7866C0 18.7761 4.3882 23.7406 10.125 24.6408V16.2554H7.07812V12.7866H10.125V10.1429C10.125 7.13537 11.9166 5.47412 14.6576 5.47412C15.9701 5.47412 17.3438 5.7085 17.3438 5.7085V8.66162H15.8306C14.34 8.66162 13.875 9.5867 13.875 10.5366V12.7866H17.2031L16.6711 16.2554H13.875V24.6408C19.6118 23.7406 24 18.7761 24 12.7866Z" fill="#1877F2"/>
<path d="M16.6711 16.2554L17.2031 12.7866H13.875V10.5366C13.875 9.58764 14.34 8.66162 15.8306 8.66162H17.3438V5.7085C17.3438 5.7085 15.9705 5.47412 14.6576 5.47412C11.9166 5.47412 10.125 7.13537 10.125 10.1429V12.7866H7.07812V16.2554H10.125V24.6408C11.3674 24.8352 12.6326 24.8352 13.875 24.6408V16.2554H16.6711Z" fill="white"/>
</g>
<defs>
<clipPath id="clip0_12941_239211">
<rect width="24" height="24" fill="white" transform="translate(0 0.786621)"/>
</clipPath>
</defs>
</svg>
