<svg width="24" height="25" viewBox="0 0 24 25" fill="none" xmlns="http://www.w3.org/2000/svg">
<path d="M0 2.50581C0 1.55687 0.794438 0.786621 1.77375 0.786621H22.2262C23.2059 0.786621 24 1.55687 24 2.50581V23.0677C24 24.0169 23.2059 24.7866 22.2262 24.7866H1.77375C0.794531 24.7866 0 24.017 0 23.068V2.50553V2.50581Z" fill="#006699"/>
<path d="M7.2933 20.8716V10.0667H3.70192V20.8716H7.29367H7.2933ZM5.49836 8.59175C6.75048 8.59175 7.53002 7.76206 7.53002 6.72519C7.50658 5.66469 6.75048 4.85815 5.52217 4.85815C4.29302 4.85815 3.49023 5.66469 3.49023 6.72509C3.49023 7.76197 4.26948 8.59165 5.47483 8.59165H5.49808L5.49836 8.59175ZM9.28117 20.8716H12.8723V14.8383C12.8723 14.5158 12.8957 14.1925 12.9906 13.9621C13.2501 13.3167 13.841 12.6485 14.8333 12.6485C16.1325 12.6485 16.6525 13.6392 16.6525 15.0919V20.8716H20.2435V14.6764C20.2435 11.3577 18.472 9.8134 16.1093 9.8134C14.1721 9.8134 13.3213 10.8961 12.8486 11.6336H12.8725V10.0671H9.28136C9.32823 11.0807 9.28108 20.872 9.28108 20.872L9.28117 20.8716Z" fill="white"/>
</svg>
