<svg width="91" height="91" viewBox="0 0 91 91" fill="none" xmlns="http://www.w3.org/2000/svg">
<g clip-path="url(#clip0_12941_239697)">
<path d="M91 0H0V91H91V0Z" fill="white"/>
<path d="M8.10038 5.6875H5.6875V8.10038H8.10038V5.6875Z" fill="#08367A"/>
<path d="M10.5133 5.6875H8.10038V8.10038H10.5133V5.6875Z" fill="#08367A"/>
<path d="M12.9261 5.6875H10.5133V8.10038H12.9261V5.6875Z" fill="#08367A"/>
<path d="M15.339 5.6875H12.9261V8.10038H15.339V5.6875Z" fill="#08367A"/>
<path d="M17.7519 5.6875H15.339V8.10038H17.7519V5.6875Z" fill="#08367A"/>
<path d="M20.1648 5.6875H17.7519V8.10038H20.1648V5.6875Z" fill="#08367A"/>
<path d="M22.5777 5.6875H20.1648V8.10038H22.5777V5.6875Z" fill="#08367A"/>
<path d="M27.4034 5.6875H24.9905V8.10038H27.4034V5.6875Z" fill="#08367A"/>
<path d="M29.8163 5.6875H27.4034V8.10038H29.8163V5.6875Z" fill="#08367A"/>
<path d="M32.2292 5.6875H29.8163V8.10038H32.2292V5.6875Z" fill="#08367A"/>
<path d="M39.4678 5.6875H37.0549V8.10038H39.4678V5.6875Z" fill="#08367A"/>
<path d="M46.7064 5.6875H44.2936V8.10038H46.7064V5.6875Z" fill="#08367A"/>
<path d="M51.5322 5.6875H49.1193V8.10038H51.5322V5.6875Z" fill="#08367A"/>
<path d="M53.9451 5.6875H51.5322V8.10038H53.9451V5.6875Z" fill="#08367A"/>
<path d="M56.358 5.6875H53.9451V8.10038H56.358V5.6875Z" fill="#08367A"/>
<path d="M58.7708 5.6875H56.358V8.10038H58.7708V5.6875Z" fill="#08367A"/>
<path d="M61.1837 5.6875H58.7708V8.10038H61.1837V5.6875Z" fill="#08367A"/>
<path d="M63.5966 5.6875H61.1837V8.10038H63.5966V5.6875Z" fill="#08367A"/>
<path d="M66.0095 5.6875H63.5966V8.10038H66.0095V5.6875Z" fill="#08367A"/>
<path d="M70.8352 5.6875H68.4224V8.10038H70.8352V5.6875Z" fill="#08367A"/>
<path d="M73.2481 5.6875H70.8352V8.10038H73.2481V5.6875Z" fill="#08367A"/>
<path d="M75.661 5.6875H73.2481V8.10038H75.661V5.6875Z" fill="#08367A"/>
<path d="M78.0739 5.6875H75.661V8.10038H78.0739V5.6875Z" fill="#08367A"/>
<path d="M80.4867 5.6875H78.0739V8.10038H80.4867V5.6875Z" fill="#08367A"/>
<path d="M82.8996 5.6875H80.4867V8.10038H82.8996V5.6875Z" fill="#08367A"/>
<path d="M85.3125 5.6875H82.8996V8.10038H85.3125V5.6875Z" fill="#08367A"/>
<path d="M8.10038 8.10038H5.6875V10.5133H8.10038V8.10038Z" fill="#08367A"/>
<path d="M22.5777 8.10038H20.1648V10.5133H22.5777V8.10038Z" fill="#08367A"/>
<path d="M29.8163 8.10038H27.4034V10.5133H29.8163V8.10038Z" fill="#08367A"/>
<path d="M34.642 8.10038H32.2292V10.5133H34.642V8.10038Z" fill="#08367A"/>
<path d="M37.0549 8.10038H34.642V10.5133H37.0549V8.10038Z" fill="#08367A"/>
<path d="M39.4678 8.10038H37.0549V10.5133H39.4678V8.10038Z" fill="#08367A"/>
<path d="M41.8807 8.10038H39.4678V10.5133H41.8807V8.10038Z" fill="#08367A"/>
<path d="M44.2936 8.10038H41.8807V10.5133H44.2936V8.10038Z" fill="#08367A"/>
<path d="M46.7064 8.10038H44.2936V10.5133H46.7064V8.10038Z" fill="#08367A"/>
<path d="M49.1193 8.10038H46.7064V10.5133H49.1193V8.10038Z" fill="#08367A"/>
<path d="M56.358 8.10038H53.9451V10.5133H56.358V8.10038Z" fill="#08367A"/>
<path d="M70.8352 8.10038H68.4224V10.5133H70.8352V8.10038Z" fill="#08367A"/>
<path d="M85.3125 8.10038H82.8996V10.5133H85.3125V8.10038Z" fill="#08367A"/>
<path d="M8.10038 10.5133H5.6875V12.9261H8.10038V10.5133Z" fill="#08367A"/>
<path d="M12.9261 10.5133H10.5133V12.9261H12.9261V10.5133Z" fill="#08367A"/>
<path d="M15.339 10.5133H12.9261V12.9261H15.339V10.5133Z" fill="#08367A"/>
<path d="M17.7519 10.5133H15.339V12.9261H17.7519V10.5133Z" fill="#08367A"/>
<path d="M22.5777 10.5133H20.1648V12.9261H22.5777V10.5133Z" fill="#08367A"/>
<path d="M27.4034 10.5133H24.9905V12.9261H27.4034V10.5133Z" fill="#08367A"/>
<path d="M29.8163 10.5133H27.4034V12.9261H29.8163V10.5133Z" fill="#08367A"/>
<path d="M34.642 10.5133H32.2292V12.9261H34.642V10.5133Z" fill="#08367A"/>
<path d="M41.8807 10.5133H39.4678V12.9261H41.8807V10.5133Z" fill="#08367A"/>
<path d="M44.2936 10.5133H41.8807V12.9261H44.2936V10.5133Z" fill="#08367A"/>
<path d="M46.7064 10.5133H44.2936V12.9261H46.7064V10.5133Z" fill="#08367A"/>
<path d="M49.1193 10.5133H46.7064V12.9261H49.1193V10.5133Z" fill="#08367A"/>
<path d="M53.9451 10.5133H51.5322V12.9261H53.9451V10.5133Z" fill="#08367A"/>
<path d="M63.5966 10.5133H61.1837V12.9261H63.5966V10.5133Z" fill="#08367A"/>
<path d="M70.8352 10.5133H68.4224V12.9261H70.8352V10.5133Z" fill="#08367A"/>
<path d="M75.661 10.5133H73.2481V12.9261H75.661V10.5133Z" fill="#08367A"/>
<path d="M78.0739 10.5133H75.661V12.9261H78.0739V10.5133Z" fill="#08367A"/>
<path d="M80.4867 10.5133H78.0739V12.9261H80.4867V10.5133Z" fill="#08367A"/>
<path d="M85.3125 10.5133H82.8996V12.9261H85.3125V10.5133Z" fill="#08367A"/>
<path d="M8.10038 12.9261H5.6875V15.339H8.10038V12.9261Z" fill="#08367A"/>
<path d="M12.9261 12.9261H10.5133V15.339H12.9261V12.9261Z" fill="#08367A"/>
<path d="M15.339 12.9261H12.9261V15.339H15.339V12.9261Z" fill="#08367A"/>
<path d="M17.7519 12.9261H15.339V15.339H17.7519V12.9261Z" fill="#08367A"/>
<path d="M22.5777 12.9261H20.1648V15.339H22.5777V12.9261Z" fill="#08367A"/>
<path d="M27.4034 12.9261H24.9905V15.339H27.4034V12.9261Z" fill="#08367A"/>
<path d="M29.8163 12.9261H27.4034V15.339H29.8163V12.9261Z" fill="#08367A"/>
<path d="M34.642 12.9261H32.2292V15.339H34.642V12.9261Z" fill="#08367A"/>
<path d="M39.4678 12.9261H37.0549V15.339H39.4678V12.9261Z" fill="#08367A"/>
<path d="M41.8807 12.9261H39.4678V15.339H41.8807V12.9261Z" fill="#08367A"/>
<path d="M44.2936 12.9261H41.8807V15.339H44.2936V12.9261Z" fill="#08367A"/>
<path d="M53.9451 12.9261H51.5322V15.339H53.9451V12.9261Z" fill="#08367A"/>
<path d="M56.358 12.9261H53.9451V15.339H56.358V12.9261Z" fill="#08367A"/>
<path d="M58.7708 12.9261H56.358V15.339H58.7708V12.9261Z" fill="#08367A"/>
<path d="M61.1837 12.9261H58.7708V15.339H61.1837V12.9261Z" fill="#08367A"/>
<path d="M66.0095 12.9261H63.5966V15.339H66.0095V12.9261Z" fill="#08367A"/>
<path d="M70.8352 12.9261H68.4224V15.339H70.8352V12.9261Z" fill="#08367A"/>
<path d="M75.661 12.9261H73.2481V15.339H75.661V12.9261Z" fill="#08367A"/>
<path d="M78.0739 12.9261H75.661V15.339H78.0739V12.9261Z" fill="#08367A"/>
<path d="M80.4867 12.9261H78.0739V15.339H80.4867V12.9261Z" fill="#08367A"/>
<path d="M85.3125 12.9261H82.8996V15.339H85.3125V12.9261Z" fill="#08367A"/>
<path d="M8.10038 15.339H5.6875V17.7519H8.10038V15.339Z" fill="#08367A"/>
<path d="M12.9261 15.339H10.5133V17.7519H12.9261V15.339Z" fill="#08367A"/>
<path d="M15.339 15.339H12.9261V17.7519H15.339V15.339Z" fill="#08367A"/>
<path d="M17.7519 15.339H15.339V17.7519H17.7519V15.339Z" fill="#08367A"/>
<path d="M22.5777 15.339H20.1648V17.7519H22.5777V15.339Z" fill="#08367A"/>
<path d="M27.4034 15.339H24.9905V17.7519H27.4034V15.339Z" fill="#08367A"/>
<path d="M34.642 15.339H32.2292V17.7519H34.642V15.339Z" fill="#08367A"/>
<path d="M46.7064 15.339H44.2936V17.7519H46.7064V15.339Z" fill="#08367A"/>
<path d="M49.1193 15.339H46.7064V17.7519H49.1193V15.339Z" fill="#08367A"/>
<path d="M66.0095 15.339H63.5966V17.7519H66.0095V15.339Z" fill="#08367A"/>
<path d="M70.8352 15.339H68.4224V17.7519H70.8352V15.339Z" fill="#08367A"/>
<path d="M75.661 15.339H73.2481V17.7519H75.661V15.339Z" fill="#08367A"/>
<path d="M78.0739 15.339H75.661V17.7519H78.0739V15.339Z" fill="#08367A"/>
<path d="M80.4867 15.339H78.0739V17.7519H80.4867V15.339Z" fill="#08367A"/>
<path d="M85.3125 15.339H82.8996V17.7519H85.3125V15.339Z" fill="#08367A"/>
<path d="M8.10038 17.7519H5.6875V20.1648H8.10038V17.7519Z" fill="#08367A"/>
<path d="M22.5777 17.7519H20.1648V20.1648H22.5777V17.7519Z" fill="#08367A"/>
<path d="M27.4034 17.7519H24.9905V20.1648H27.4034V17.7519Z" fill="#08367A"/>
<path d="M29.8163 17.7519H27.4034V20.1648H29.8163V17.7519Z" fill="#08367A"/>
<path d="M34.642 17.7519H32.2292V20.1648H34.642V17.7519Z" fill="#08367A"/>
<path d="M37.0549 17.7519H34.642V20.1648H37.0549V17.7519Z" fill="#08367A"/>
<path d="M41.8807 17.7519H39.4678V20.1648H41.8807V17.7519Z" fill="#08367A"/>
<path d="M49.1193 17.7519H46.7064V20.1648H49.1193V17.7519Z" fill="#08367A"/>
<path d="M51.5322 17.7519H49.1193V20.1648H51.5322V17.7519Z" fill="#08367A"/>
<path d="M58.7708 17.7519H56.358V20.1648H58.7708V17.7519Z" fill="#08367A"/>
<path d="M70.8352 17.7519H68.4224V20.1648H70.8352V17.7519Z" fill="#08367A"/>
<path d="M85.3125 17.7519H82.8996V20.1648H85.3125V17.7519Z" fill="#08367A"/>
<path d="M8.10038 20.1648H5.6875V22.5777H8.10038V20.1648Z" fill="#08367A"/>
<path d="M10.5133 20.1648H8.10038V22.5777H10.5133V20.1648Z" fill="#08367A"/>
<path d="M12.9261 20.1648H10.5133V22.5777H12.9261V20.1648Z" fill="#08367A"/>
<path d="M15.339 20.1648H12.9261V22.5777H15.339V20.1648Z" fill="#08367A"/>
<path d="M17.7519 20.1648H15.339V22.5777H17.7519V20.1648Z" fill="#08367A"/>
<path d="M20.1648 20.1648H17.7519V22.5777H20.1648V20.1648Z" fill="#08367A"/>
<path d="M22.5777 20.1648H20.1648V22.5777H22.5777V20.1648Z" fill="#08367A"/>
<path d="M27.4034 20.1648H24.9905V22.5777H27.4034V20.1648Z" fill="#08367A"/>
<path d="M32.2292 20.1648H29.8163V22.5777H32.2292V20.1648Z" fill="#08367A"/>
<path d="M37.0549 20.1648H34.642V22.5777H37.0549V20.1648Z" fill="#08367A"/>
<path d="M41.8807 20.1648H39.4678V22.5777H41.8807V20.1648Z" fill="#08367A"/>
<path d="M46.7064 20.1648H44.2936V22.5777H46.7064V20.1648Z" fill="#08367A"/>
<path d="M51.5322 20.1648H49.1193V22.5777H51.5322V20.1648Z" fill="#08367A"/>
<path d="M56.358 20.1648H53.9451V22.5777H56.358V20.1648Z" fill="#08367A"/>
<path d="M61.1837 20.1648H58.7708V22.5777H61.1837V20.1648Z" fill="#08367A"/>
<path d="M66.0095 20.1648H63.5966V22.5777H66.0095V20.1648Z" fill="#08367A"/>
<path d="M70.8352 20.1648H68.4224V22.5777H70.8352V20.1648Z" fill="#08367A"/>
<path d="M73.2481 20.1648H70.8352V22.5777H73.2481V20.1648Z" fill="#08367A"/>
<path d="M75.661 20.1648H73.2481V22.5777H75.661V20.1648Z" fill="#08367A"/>
<path d="M78.0739 20.1648H75.661V22.5777H78.0739V20.1648Z" fill="#08367A"/>
<path d="M80.4867 20.1648H78.0739V22.5777H80.4867V20.1648Z" fill="#08367A"/>
<path d="M82.8996 20.1648H80.4867V22.5777H82.8996V20.1648Z" fill="#08367A"/>
<path d="M85.3125 20.1648H82.8996V22.5777H85.3125V20.1648Z" fill="#08367A"/>
<path d="M37.0549 22.5777H34.642V24.9905H37.0549V22.5777Z" fill="#08367A"/>
<path d="M41.8807 22.5777H39.4678V24.9905H41.8807V22.5777Z" fill="#08367A"/>
<path d="M51.5322 22.5777H49.1193V24.9905H51.5322V22.5777Z" fill="#08367A"/>
<path d="M56.358 22.5777H53.9451V24.9905H56.358V22.5777Z" fill="#08367A"/>
<path d="M58.7708 22.5777H56.358V24.9905H58.7708V22.5777Z" fill="#08367A"/>
<path d="M63.5966 22.5777H61.1837V24.9905H63.5966V22.5777Z" fill="#08367A"/>
<path d="M66.0095 22.5777H63.5966V24.9905H66.0095V22.5777Z" fill="#08367A"/>
<path d="M12.9261 24.9905H10.5133V27.4034H12.9261V24.9905Z" fill="#08367A"/>
<path d="M15.339 24.9905H12.9261V27.4034H15.339V24.9905Z" fill="#08367A"/>
<path d="M17.7519 24.9905H15.339V27.4034H17.7519V24.9905Z" fill="#08367A"/>
<path d="M20.1648 24.9905H17.7519V27.4034H20.1648V24.9905Z" fill="#08367A"/>
<path d="M22.5777 24.9905H20.1648V27.4034H22.5777V24.9905Z" fill="#08367A"/>
<path d="M24.9905 24.9905H22.5777V27.4034H24.9905V24.9905Z" fill="#08367A"/>
<path d="M32.2292 24.9905H29.8163V27.4034H32.2292V24.9905Z" fill="#08367A"/>
<path d="M39.4678 24.9905H37.0549V27.4034H39.4678V24.9905Z" fill="#08367A"/>
<path d="M41.8807 24.9905H39.4678V27.4034H41.8807V24.9905Z" fill="#08367A"/>
<path d="M44.2936 24.9905H41.8807V27.4034H44.2936V24.9905Z" fill="#08367A"/>
<path d="M51.5322 24.9905H49.1193V27.4034H51.5322V24.9905Z" fill="#08367A"/>
<path d="M53.9451 24.9905H51.5322V27.4034H53.9451V24.9905Z" fill="#08367A"/>
<path d="M61.1837 24.9905H58.7708V27.4034H61.1837V24.9905Z" fill="#08367A"/>
<path d="M68.4224 24.9905H66.0095V27.4034H68.4224V24.9905Z" fill="#08367A"/>
<path d="M73.2481 24.9905H70.8352V27.4034H73.2481V24.9905Z" fill="#08367A"/>
<path d="M75.661 24.9905H73.2481V27.4034H75.661V24.9905Z" fill="#08367A"/>
<path d="M78.0739 24.9905H75.661V27.4034H78.0739V24.9905Z" fill="#08367A"/>
<path d="M80.4867 24.9905H78.0739V27.4034H80.4867V24.9905Z" fill="#08367A"/>
<path d="M85.3125 24.9905H82.8996V27.4034H85.3125V24.9905Z" fill="#08367A"/>
<path d="M10.5133 27.4034H8.10038V29.8163H10.5133V27.4034Z" fill="#08367A"/>
<path d="M17.7519 27.4034H15.339V29.8163H17.7519V27.4034Z" fill="#08367A"/>
<path d="M20.1648 27.4034H17.7519V29.8163H20.1648V27.4034Z" fill="#08367A"/>
<path d="M29.8163 27.4034H27.4034V29.8163H29.8163V27.4034Z" fill="#08367A"/>
<path d="M32.2292 27.4034H29.8163V29.8163H32.2292V27.4034Z" fill="#08367A"/>
<path d="M37.0549 27.4034H34.642V29.8163H37.0549V27.4034Z" fill="#08367A"/>
<path d="M44.2936 27.4034H41.8807V29.8163H44.2936V27.4034Z" fill="#08367A"/>
<path d="M51.5322 27.4034H49.1193V29.8163H51.5322V27.4034Z" fill="#08367A"/>
<path d="M53.9451 27.4034H51.5322V29.8163H53.9451V27.4034Z" fill="#08367A"/>
<path d="M58.7708 27.4034H56.358V29.8163H58.7708V27.4034Z" fill="#08367A"/>
<path d="M61.1837 27.4034H58.7708V29.8163H61.1837V27.4034Z" fill="#08367A"/>
<path d="M63.5966 27.4034H61.1837V29.8163H63.5966V27.4034Z" fill="#08367A"/>
<path d="M68.4224 27.4034H66.0095V29.8163H68.4224V27.4034Z" fill="#08367A"/>
<path d="M75.661 27.4034H73.2481V29.8163H75.661V27.4034Z" fill="#08367A"/>
<path d="M78.0739 27.4034H75.661V29.8163H78.0739V27.4034Z" fill="#08367A"/>
<path d="M80.4867 27.4034H78.0739V29.8163H80.4867V27.4034Z" fill="#08367A"/>
<path d="M82.8996 27.4034H80.4867V29.8163H82.8996V27.4034Z" fill="#08367A"/>
<path d="M8.10038 29.8163H5.6875V32.2292H8.10038V29.8163Z" fill="#08367A"/>
<path d="M12.9261 29.8163H10.5133V32.2292H12.9261V29.8163Z" fill="#08367A"/>
<path d="M20.1648 29.8163H17.7519V32.2292H20.1648V29.8163Z" fill="#08367A"/>
<path d="M22.5777 29.8163H20.1648V32.2292H22.5777V29.8163Z" fill="#08367A"/>
<path d="M29.8163 29.8163H27.4034V32.2292H29.8163V29.8163Z" fill="#08367A"/>
<path d="M32.2292 29.8163H29.8163V32.2292H32.2292V29.8163Z" fill="#08367A"/>
<path d="M34.642 29.8163H32.2292V32.2292H34.642V29.8163Z" fill="#08367A"/>
<path d="M44.2936 29.8163H41.8807V32.2292H44.2936V29.8163Z" fill="#08367A"/>
<path d="M46.7064 29.8163H44.2936V32.2292H46.7064V29.8163Z" fill="#08367A"/>
<path d="M49.1193 29.8163H46.7064V32.2292H49.1193V29.8163Z" fill="#08367A"/>
<path d="M51.5322 29.8163H49.1193V32.2292H51.5322V29.8163Z" fill="#08367A"/>
<path d="M53.9451 29.8163H51.5322V32.2292H53.9451V29.8163Z" fill="#08367A"/>
<path d="M58.7708 29.8163H56.358V32.2292H58.7708V29.8163Z" fill="#08367A"/>
<path d="M68.4224 29.8163H66.0095V32.2292H68.4224V29.8163Z" fill="#08367A"/>
<path d="M70.8352 29.8163H68.4224V32.2292H70.8352V29.8163Z" fill="#08367A"/>
<path d="M80.4867 29.8163H78.0739V32.2292H80.4867V29.8163Z" fill="#08367A"/>
<path d="M85.3125 29.8163H82.8996V32.2292H85.3125V29.8163Z" fill="#08367A"/>
<path d="M17.7519 32.2292H15.339V34.642H17.7519V32.2292Z" fill="#08367A"/>
<path d="M24.9905 32.2292H22.5777V34.642H24.9905V32.2292Z" fill="#08367A"/>
<path d="M39.4678 32.2292H37.0549V34.642H39.4678V32.2292Z" fill="#08367A"/>
<path d="M41.8807 32.2292H39.4678V34.642H41.8807V32.2292Z" fill="#08367A"/>
<path d="M44.2936 32.2292H41.8807V34.642H44.2936V32.2292Z" fill="#08367A"/>
<path d="M63.5966 32.2292H61.1837V34.642H63.5966V32.2292Z" fill="#08367A"/>
<path d="M70.8352 32.2292H68.4224V34.642H70.8352V32.2292Z" fill="#08367A"/>
<path d="M73.2481 32.2292H70.8352V34.642H73.2481V32.2292Z" fill="#08367A"/>
<path d="M75.661 32.2292H73.2481V34.642H75.661V32.2292Z" fill="#08367A"/>
<path d="M78.0739 32.2292H75.661V34.642H78.0739V32.2292Z" fill="#08367A"/>
<path d="M82.8996 32.2292H80.4867V34.642H82.8996V32.2292Z" fill="#08367A"/>
<path d="M85.3125 32.2292H82.8996V34.642H85.3125V32.2292Z" fill="#08367A"/>
<path d="M12.9261 34.642H10.5133V37.0549H12.9261V34.642Z" fill="#08367A"/>
<path d="M15.339 34.642H12.9261V37.0549H15.339V34.642Z" fill="#08367A"/>
<path d="M17.7519 34.642H15.339V37.0549H17.7519V34.642Z" fill="#08367A"/>
<path d="M20.1648 34.642H17.7519V37.0549H20.1648V34.642Z" fill="#08367A"/>
<path d="M22.5777 34.642H20.1648V37.0549H22.5777V34.642Z" fill="#08367A"/>
<path d="M24.9905 34.642H22.5777V37.0549H24.9905V34.642Z" fill="#08367A"/>
<path d="M32.2292 34.642H29.8163V37.0549H32.2292V34.642Z" fill="#08367A"/>
<path d="M34.642 34.642H32.2292V37.0549H34.642V34.642Z" fill="#08367A"/>
<path d="M37.0549 34.642H34.642V37.0549H37.0549V34.642Z" fill="#08367A"/>
<path d="M39.4678 34.642H37.0549V37.0549H39.4678V34.642Z" fill="#08367A"/>
<path d="M49.1193 34.642H46.7064V37.0549H49.1193V34.642Z" fill="#08367A"/>
<path d="M58.7708 34.642H56.358V37.0549H58.7708V34.642Z" fill="#08367A"/>
<path d="M73.2481 34.642H70.8352V37.0549H73.2481V34.642Z" fill="#08367A"/>
<path d="M78.0739 34.642H75.661V37.0549H78.0739V34.642Z" fill="#08367A"/>
<path d="M80.4867 34.642H78.0739V37.0549H80.4867V34.642Z" fill="#08367A"/>
<path d="M85.3125 34.642H82.8996V37.0549H85.3125V34.642Z" fill="#08367A"/>
<path d="M17.7519 37.0549H15.339V39.4678H17.7519V37.0549Z" fill="#08367A"/>
<path d="M20.1648 37.0549H17.7519V39.4678H20.1648V37.0549Z" fill="#08367A"/>
<path d="M27.4034 37.0549H24.9905V39.4678H27.4034V37.0549Z" fill="#08367A"/>
<path d="M29.8163 37.0549H27.4034V39.4678H29.8163V37.0549Z" fill="#08367A"/>
<path d="M32.2292 37.0549H29.8163V39.4678H32.2292V37.0549Z" fill="#08367A"/>
<path d="M34.642 37.0549H32.2292V39.4678H34.642V37.0549Z" fill="#08367A"/>
<path d="M39.4678 37.0549H37.0549V39.4678H39.4678V37.0549Z" fill="#08367A"/>
<path d="M46.7064 37.0549H44.2936V39.4678H46.7064V37.0549Z" fill="#08367A"/>
<path d="M49.1193 37.0549H46.7064V39.4678H49.1193V37.0549Z" fill="#08367A"/>
<path d="M51.5322 37.0549H49.1193V39.4678H51.5322V37.0549Z" fill="#08367A"/>
<path d="M53.9451 37.0549H51.5322V39.4678H53.9451V37.0549Z" fill="#08367A"/>
<path d="M56.358 37.0549H53.9451V39.4678H56.358V37.0549Z" fill="#08367A"/>
<path d="M58.7708 37.0549H56.358V39.4678H58.7708V37.0549Z" fill="#08367A"/>
<path d="M66.0095 37.0549H63.5966V39.4678H66.0095V37.0549Z" fill="#08367A"/>
<path d="M75.661 37.0549H73.2481V39.4678H75.661V37.0549Z" fill="#08367A"/>
<path d="M85.3125 37.0549H82.8996V39.4678H85.3125V37.0549Z" fill="#08367A"/>
<path d="M12.9261 39.4678H10.5133V41.8807H12.9261V39.4678Z" fill="#08367A"/>
<path d="M17.7519 39.4678H15.339V41.8807H17.7519V39.4678Z" fill="#08367A"/>
<path d="M20.1648 39.4678H17.7519V41.8807H20.1648V39.4678Z" fill="#08367A"/>
<path d="M22.5777 39.4678H20.1648V41.8807H22.5777V39.4678Z" fill="#08367A"/>
<path d="M24.9905 39.4678H22.5777V41.8807H24.9905V39.4678Z" fill="#08367A"/>
<path d="M27.4034 39.4678H24.9905V41.8807H27.4034V39.4678Z" fill="#08367A"/>
<path d="M32.2292 39.4678H29.8163V41.8807H32.2292V39.4678Z" fill="#08367A"/>
<path d="M37.0549 39.4678H34.642V41.8807H37.0549V39.4678Z" fill="#08367A"/>
<path d="M44.2936 39.4678H41.8807V41.8807H44.2936V39.4678Z" fill="#08367A"/>
<path d="M49.1193 39.4678H46.7064V41.8807H49.1193V39.4678Z" fill="#08367A"/>
<path d="M51.5322 39.4678H49.1193V41.8807H51.5322V39.4678Z" fill="#08367A"/>
<path d="M53.9451 39.4678H51.5322V41.8807H53.9451V39.4678Z" fill="#08367A"/>
<path d="M63.5966 39.4678H61.1837V41.8807H63.5966V39.4678Z" fill="#08367A"/>
<path d="M68.4224 39.4678H66.0095V41.8807H68.4224V39.4678Z" fill="#08367A"/>
<path d="M70.8352 39.4678H68.4224V41.8807H70.8352V39.4678Z" fill="#08367A"/>
<path d="M75.661 39.4678H73.2481V41.8807H75.661V39.4678Z" fill="#08367A"/>
<path d="M82.8996 39.4678H80.4867V41.8807H82.8996V39.4678Z" fill="#08367A"/>
<path d="M10.5133 41.8807H8.10038V44.2936H10.5133V41.8807Z" fill="#08367A"/>
<path d="M15.339 41.8807H12.9261V44.2936H15.339V41.8807Z" fill="#08367A"/>
<path d="M17.7519 41.8807H15.339V44.2936H17.7519V41.8807Z" fill="#08367A"/>
<path d="M32.2292 41.8807H29.8163V44.2936H32.2292V41.8807Z" fill="#08367A"/>
<path d="M37.0549 41.8807H34.642V44.2936H37.0549V41.8807Z" fill="#08367A"/>
<path d="M39.4678 41.8807H37.0549V44.2936H39.4678V41.8807Z" fill="#08367A"/>
<path d="M41.8807 41.8807H39.4678V44.2936H41.8807V41.8807Z" fill="#08367A"/>
<path d="M44.2936 41.8807H41.8807V44.2936H44.2936V41.8807Z" fill="#08367A"/>
<path d="M46.7064 41.8807H44.2936V44.2936H46.7064V41.8807Z" fill="#08367A"/>
<path d="M49.1193 41.8807H46.7064V44.2936H49.1193V41.8807Z" fill="#08367A"/>
<path d="M51.5322 41.8807H49.1193V44.2936H51.5322V41.8807Z" fill="#08367A"/>
<path d="M53.9451 41.8807H51.5322V44.2936H53.9451V41.8807Z" fill="#08367A"/>
<path d="M58.7708 41.8807H56.358V44.2936H58.7708V41.8807Z" fill="#08367A"/>
<path d="M70.8352 41.8807H68.4224V44.2936H70.8352V41.8807Z" fill="#08367A"/>
<path d="M73.2481 41.8807H70.8352V44.2936H73.2481V41.8807Z" fill="#08367A"/>
<path d="M78.0739 41.8807H75.661V44.2936H78.0739V41.8807Z" fill="#08367A"/>
<path d="M80.4867 41.8807H78.0739V44.2936H80.4867V41.8807Z" fill="#08367A"/>
<path d="M82.8996 41.8807H80.4867V44.2936H82.8996V41.8807Z" fill="#08367A"/>
<path d="M85.3125 41.8807H82.8996V44.2936H85.3125V41.8807Z" fill="#08367A"/>
<path d="M10.5133 44.2936H8.10038V46.7064H10.5133V44.2936Z" fill="#08367A"/>
<path d="M12.9261 44.2936H10.5133V46.7064H12.9261V44.2936Z" fill="#08367A"/>
<path d="M17.7519 44.2936H15.339V46.7064H17.7519V44.2936Z" fill="#08367A"/>
<path d="M22.5777 44.2936H20.1648V46.7064H22.5777V44.2936Z" fill="#08367A"/>
<path d="M24.9905 44.2936H22.5777V46.7064H24.9905V44.2936Z" fill="#08367A"/>
<path d="M27.4034 44.2936H24.9905V46.7064H27.4034V44.2936Z" fill="#08367A"/>
<path d="M32.2292 44.2936H29.8163V46.7064H32.2292V44.2936Z" fill="#08367A"/>
<path d="M37.0549 44.2936H34.642V46.7064H37.0549V44.2936Z" fill="#08367A"/>
<path d="M41.8807 44.2936H39.4678V46.7064H41.8807V44.2936Z" fill="#08367A"/>
<path d="M46.7064 44.2936H44.2936V46.7064H46.7064V44.2936Z" fill="#08367A"/>
<path d="M49.1193 44.2936H46.7064V46.7064H49.1193V44.2936Z" fill="#08367A"/>
<path d="M51.5322 44.2936H49.1193V46.7064H51.5322V44.2936Z" fill="#08367A"/>
<path d="M53.9451 44.2936H51.5322V46.7064H53.9451V44.2936Z" fill="#08367A"/>
<path d="M58.7708 44.2936H56.358V46.7064H58.7708V44.2936Z" fill="#08367A"/>
<path d="M63.5966 44.2936H61.1837V46.7064H63.5966V44.2936Z" fill="#08367A"/>
<path d="M68.4224 44.2936H66.0095V46.7064H68.4224V44.2936Z" fill="#08367A"/>
<path d="M70.8352 44.2936H68.4224V46.7064H70.8352V44.2936Z" fill="#08367A"/>
<path d="M73.2481 44.2936H70.8352V46.7064H73.2481V44.2936Z" fill="#08367A"/>
<path d="M75.661 44.2936H73.2481V46.7064H75.661V44.2936Z" fill="#08367A"/>
<path d="M80.4867 44.2936H78.0739V46.7064H80.4867V44.2936Z" fill="#08367A"/>
<path d="M17.7519 46.7064H15.339V49.1193H17.7519V46.7064Z" fill="#08367A"/>
<path d="M20.1648 46.7064H17.7519V49.1193H20.1648V46.7064Z" fill="#08367A"/>
<path d="M27.4034 46.7064H24.9905V49.1193H27.4034V46.7064Z" fill="#08367A"/>
<path d="M29.8163 46.7064H27.4034V49.1193H29.8163V46.7064Z" fill="#08367A"/>
<path d="M32.2292 46.7064H29.8163V49.1193H32.2292V46.7064Z" fill="#08367A"/>
<path d="M34.642 46.7064H32.2292V49.1193H34.642V46.7064Z" fill="#08367A"/>
<path d="M39.4678 46.7064H37.0549V49.1193H39.4678V46.7064Z" fill="#08367A"/>
<path d="M46.7064 46.7064H44.2936V49.1193H46.7064V46.7064Z" fill="#08367A"/>
<path d="M66.0095 46.7064H63.5966V49.1193H66.0095V46.7064Z" fill="#08367A"/>
<path d="M68.4224 46.7064H66.0095V49.1193H68.4224V46.7064Z" fill="#08367A"/>
<path d="M70.8352 46.7064H68.4224V49.1193H70.8352V46.7064Z" fill="#08367A"/>
<path d="M73.2481 46.7064H70.8352V49.1193H73.2481V46.7064Z" fill="#08367A"/>
<path d="M78.0739 46.7064H75.661V49.1193H78.0739V46.7064Z" fill="#08367A"/>
<path d="M80.4867 46.7064H78.0739V49.1193H80.4867V46.7064Z" fill="#08367A"/>
<path d="M85.3125 46.7064H82.8996V49.1193H85.3125V46.7064Z" fill="#08367A"/>
<path d="M8.10038 49.1193H5.6875V51.5322H8.10038V49.1193Z" fill="#08367A"/>
<path d="M10.5133 49.1193H8.10038V51.5322H10.5133V49.1193Z" fill="#08367A"/>
<path d="M15.339 49.1193H12.9261V51.5322H15.339V49.1193Z" fill="#08367A"/>
<path d="M22.5777 49.1193H20.1648V51.5322H22.5777V49.1193Z" fill="#08367A"/>
<path d="M24.9905 49.1193H22.5777V51.5322H24.9905V49.1193Z" fill="#08367A"/>
<path d="M29.8163 49.1193H27.4034V51.5322H29.8163V49.1193Z" fill="#08367A"/>
<path d="M34.642 49.1193H32.2292V51.5322H34.642V49.1193Z" fill="#08367A"/>
<path d="M39.4678 49.1193H37.0549V51.5322H39.4678V49.1193Z" fill="#08367A"/>
<path d="M49.1193 49.1193H46.7064V51.5322H49.1193V49.1193Z" fill="#08367A"/>
<path d="M51.5322 49.1193H49.1193V51.5322H51.5322V49.1193Z" fill="#08367A"/>
<path d="M56.358 49.1193H53.9451V51.5322H56.358V49.1193Z" fill="#08367A"/>
<path d="M66.0095 49.1193H63.5966V51.5322H66.0095V49.1193Z" fill="#08367A"/>
<path d="M68.4224 49.1193H66.0095V51.5322H68.4224V49.1193Z" fill="#08367A"/>
<path d="M73.2481 49.1193H70.8352V51.5322H73.2481V49.1193Z" fill="#08367A"/>
<path d="M78.0739 49.1193H75.661V51.5322H78.0739V49.1193Z" fill="#08367A"/>
<path d="M8.10038 51.5322H5.6875V53.9451H8.10038V51.5322Z" fill="#08367A"/>
<path d="M12.9261 51.5322H10.5133V53.9451H12.9261V51.5322Z" fill="#08367A"/>
<path d="M15.339 51.5322H12.9261V53.9451H15.339V51.5322Z" fill="#08367A"/>
<path d="M20.1648 51.5322L17.7519 51.5322V53.9451H20.1648V51.5322Z" fill="#08367A"/>
<path d="M24.9905 51.5322H22.5777V53.9451H24.9905V51.5322Z" fill="#08367A"/>
<path d="M27.4034 51.5322H24.9905V53.9451H27.4034V51.5322Z" fill="#08367A"/>
<path d="M29.8163 51.5322H27.4034V53.9451H29.8163V51.5322Z" fill="#08367A"/>
<path d="M34.642 51.5322H32.2292V53.9451H34.642V51.5322Z" fill="#08367A"/>
<path d="M37.0549 51.5322H34.642V53.9451H37.0549V51.5322Z" fill="#08367A"/>
<path d="M49.1193 51.5322H46.7064V53.9451H49.1193V51.5322Z" fill="#08367A"/>
<path d="M56.358 51.5322H53.9451V53.9451H56.358V51.5322Z" fill="#08367A"/>
<path d="M61.1837 51.5322H58.7708V53.9451H61.1837V51.5322Z" fill="#08367A"/>
<path d="M63.5966 51.5322L61.1837 51.5322V53.9451H63.5966V51.5322Z" fill="#08367A"/>
<path d="M66.0095 51.5322H63.5966V53.9451H66.0095V51.5322Z" fill="#08367A"/>
<path d="M68.4224 51.5322H66.0095V53.9451H68.4224V51.5322Z" fill="#08367A"/>
<path d="M75.661 51.5322H73.2481V53.9451H75.661V51.5322Z" fill="#08367A"/>
<path d="M10.5133 53.9451H8.10038V56.358H10.5133V53.9451Z" fill="#08367A"/>
<path d="M17.7519 53.9451H15.339V56.358H17.7519V53.9451Z" fill="#08367A"/>
<path d="M22.5777 53.9451H20.1648V56.358H22.5777V53.9451Z" fill="#08367A"/>
<path d="M24.9905 53.9451H22.5777V56.358H24.9905V53.9451Z" fill="#08367A"/>
<path d="M29.8163 53.9451H27.4034V56.358H29.8163V53.9451Z" fill="#08367A"/>
<path d="M34.642 53.9451H32.2292V56.358H34.642V53.9451Z" fill="#08367A"/>
<path d="M37.0549 53.9451H34.642V56.358H37.0549V53.9451Z" fill="#08367A"/>
<path d="M41.8807 53.9451H39.4678V56.358H41.8807V53.9451Z" fill="#08367A"/>
<path d="M49.1193 53.9451H46.7064V56.358H49.1193V53.9451Z" fill="#08367A"/>
<path d="M51.5322 53.9451H49.1193V56.358H51.5322V53.9451Z" fill="#08367A"/>
<path d="M58.7708 53.9451H56.358V56.358H58.7708V53.9451Z" fill="#08367A"/>
<path d="M63.5966 53.9451H61.1837V56.358H63.5966V53.9451Z" fill="#08367A"/>
<path d="M68.4224 53.9451H66.0095V56.358H68.4224V53.9451Z" fill="#08367A"/>
<path d="M73.2481 53.9451H70.8352V56.358H73.2481V53.9451Z" fill="#08367A"/>
<path d="M80.4867 53.9451H78.0739V56.358H80.4867V53.9451Z" fill="#08367A"/>
<path d="M82.8996 53.9451H80.4867V56.358H82.8996V53.9451Z" fill="#08367A"/>
<path d="M10.5133 56.358H8.10038V58.7708H10.5133V56.358Z" fill="#08367A"/>
<path d="M12.9261 56.358H10.5133V58.7708H12.9261V56.358Z" fill="#08367A"/>
<path d="M24.9905 56.358H22.5777V58.7708H24.9905V56.358Z" fill="#08367A"/>
<path d="M29.8163 56.358H27.4034V58.7708H29.8163V56.358Z" fill="#08367A"/>
<path d="M32.2292 56.358H29.8163V58.7708H32.2292V56.358Z" fill="#08367A"/>
<path d="M34.642 56.358H32.2292V58.7708H34.642V56.358Z" fill="#08367A"/>
<path d="M44.2936 56.358H41.8807V58.7708H44.2936V56.358Z" fill="#08367A"/>
<path d="M49.1193 56.358H46.7064V58.7708H49.1193V56.358Z" fill="#08367A"/>
<path d="M53.9451 56.358H51.5322L51.5322 58.7708H53.9451V56.358Z" fill="#08367A"/>
<path d="M63.5966 56.358H61.1837V58.7708H63.5966V56.358Z" fill="#08367A"/>
<path d="M68.4224 56.358H66.0095V58.7708H68.4224V56.358Z" fill="#08367A"/>
<path d="M70.8352 56.358H68.4224V58.7708H70.8352V56.358Z" fill="#08367A"/>
<path d="M73.2481 56.358H70.8352V58.7708H73.2481V56.358Z" fill="#08367A"/>
<path d="M78.0739 56.358H75.661V58.7708H78.0739V56.358Z" fill="#08367A"/>
<path d="M80.4867 56.358H78.0739V58.7708H80.4867V56.358Z" fill="#08367A"/>
<path d="M82.8996 56.358H80.4867V58.7708H82.8996V56.358Z" fill="#08367A"/>
<path d="M10.5133 58.7708H8.10038V61.1837H10.5133V58.7708Z" fill="#08367A"/>
<path d="M12.9261 58.7708H10.5133V61.1837H12.9261V58.7708Z" fill="#08367A"/>
<path d="M15.339 58.7708H12.9261V61.1837H15.339V58.7708Z" fill="#08367A"/>
<path d="M17.7519 58.7708H15.339V61.1837H17.7519V58.7708Z" fill="#08367A"/>
<path d="M20.1648 58.7708H17.7519V61.1837H20.1648V58.7708Z" fill="#08367A"/>
<path d="M22.5777 58.7708H20.1648V61.1837H22.5777V58.7708Z" fill="#08367A"/>
<path d="M27.4034 58.7708H24.9905V61.1837H27.4034V58.7708Z" fill="#08367A"/>
<path d="M32.2292 58.7708H29.8163V61.1837H32.2292V58.7708Z" fill="#08367A"/>
<path d="M37.0549 58.7708H34.642V61.1837H37.0549V58.7708Z" fill="#08367A"/>
<path d="M39.4678 58.7708H37.0549V61.1837H39.4678V58.7708Z" fill="#08367A"/>
<path d="M41.8807 58.7708H39.4678V61.1837H41.8807V58.7708Z" fill="#08367A"/>
<path d="M44.2936 58.7708H41.8807V61.1837H44.2936V58.7708Z" fill="#08367A"/>
<path d="M46.7064 58.7708H44.2936V61.1837H46.7064V58.7708Z" fill="#08367A"/>
<path d="M56.358 58.7708H53.9451V61.1837H56.358V58.7708Z" fill="#08367A"/>
<path d="M58.7708 58.7708H56.358V61.1837H58.7708V58.7708Z" fill="#08367A"/>
<path d="M61.1837 58.7708H58.7708V61.1837H61.1837V58.7708Z" fill="#08367A"/>
<path d="M66.0095 58.7708H63.5966V61.1837H66.0095V58.7708Z" fill="#08367A"/>
<path d="M70.8352 58.7708H68.4224V61.1837H70.8352V58.7708Z" fill="#08367A"/>
<path d="M73.2481 58.7708H70.8352V61.1837H73.2481V58.7708Z" fill="#08367A"/>
<path d="M75.661 58.7708H73.2481V61.1837H75.661V58.7708Z" fill="#08367A"/>
<path d="M80.4867 58.7708H78.0739V61.1837H80.4867V58.7708Z" fill="#08367A"/>
<path d="M82.8996 58.7708H80.4867V61.1837H82.8996V58.7708Z" fill="#08367A"/>
<path d="M85.3125 58.7708H82.8996V61.1837H85.3125V58.7708Z" fill="#08367A"/>
<path d="M8.10038 61.1837H5.6875V63.5966H8.10038V61.1837Z" fill="#08367A"/>
<path d="M12.9261 61.1837H10.5133V63.5966H12.9261V61.1837Z" fill="#08367A"/>
<path d="M15.339 61.1837H12.9261V63.5966H15.339V61.1837Z" fill="#08367A"/>
<path d="M17.7519 61.1837H15.339V63.5966H17.7519V61.1837Z" fill="#08367A"/>
<path d="M24.9905 61.1837H22.5777V63.5966H24.9905V61.1837Z" fill="#08367A"/>
<path d="M29.8163 61.1837H27.4034V63.5966H29.8163V61.1837Z" fill="#08367A"/>
<path d="M37.0549 61.1837H34.642V63.5966H37.0549V61.1837Z" fill="#08367A"/>
<path d="M39.4678 61.1837H37.0549V63.5966H39.4678V61.1837Z" fill="#08367A"/>
<path d="M49.1193 61.1837H46.7064V63.5966H49.1193V61.1837Z" fill="#08367A"/>
<path d="M53.9451 61.1837H51.5322V63.5966H53.9451V61.1837Z" fill="#08367A"/>
<path d="M58.7708 61.1837H56.358V63.5966H58.7708V61.1837Z" fill="#08367A"/>
<path d="M63.5966 61.1837H61.1837V63.5966H63.5966V61.1837Z" fill="#08367A"/>
<path d="M66.0095 61.1837H63.5966V63.5966H66.0095V61.1837Z" fill="#08367A"/>
<path d="M70.8352 61.1837H68.4224V63.5966H70.8352V61.1837Z" fill="#08367A"/>
<path d="M73.2481 61.1837H70.8352V63.5966H73.2481V61.1837Z" fill="#08367A"/>
<path d="M80.4867 61.1837H78.0739V63.5966H80.4867V61.1837Z" fill="#08367A"/>
<path d="M82.8996 61.1837H80.4867V63.5966H82.8996V61.1837Z" fill="#08367A"/>
<path d="M85.3125 61.1837H82.8996V63.5966H85.3125V61.1837Z" fill="#08367A"/>
<path d="M8.10038 63.5966H5.6875V66.0095H8.10038V63.5966Z" fill="#08367A"/>
<path d="M10.5133 63.5966H8.10038V66.0095H10.5133V63.5966Z" fill="#08367A"/>
<path d="M17.7519 63.5966H15.339V66.0095H17.7519V63.5966Z" fill="#08367A"/>
<path d="M20.1648 63.5966H17.7519V66.0095H20.1648V63.5966Z" fill="#08367A"/>
<path d="M22.5777 63.5966H20.1648V66.0095H22.5777V63.5966Z" fill="#08367A"/>
<path d="M24.9905 63.5966H22.5777V66.0095H24.9905V63.5966Z" fill="#08367A"/>
<path d="M27.4034 63.5966H24.9905V66.0095H27.4034V63.5966Z" fill="#08367A"/>
<path d="M34.642 63.5966H32.2292V66.0095H34.642V63.5966Z" fill="#08367A"/>
<path d="M44.2936 63.5966H41.8807V66.0095H44.2936V63.5966Z" fill="#08367A"/>
<path d="M46.7064 63.5966H44.2936V66.0095H46.7064V63.5966Z" fill="#08367A"/>
<path d="M51.5322 63.5966H49.1193V66.0095H51.5322L51.5322 63.5966Z" fill="#08367A"/>
<path d="M66.0095 63.5966H63.5966V66.0095H66.0095V63.5966Z" fill="#08367A"/>
<path d="M68.4224 63.5966H66.0095V66.0095H68.4224V63.5966Z" fill="#08367A"/>
<path d="M70.8352 63.5966H68.4224V66.0095H70.8352V63.5966Z" fill="#08367A"/>
<path d="M73.2481 63.5966H70.8352V66.0095H73.2481V63.5966Z" fill="#08367A"/>
<path d="M75.661 63.5966H73.2481V66.0095H75.661V63.5966Z" fill="#08367A"/>
<path d="M82.8996 63.5966H80.4867V66.0095H82.8996V63.5966Z" fill="#08367A"/>
<path d="M85.3125 63.5966H82.8996V66.0095H85.3125V63.5966Z" fill="#08367A"/>
<path d="M32.2292 66.0095H29.8163V68.4224H32.2292V66.0095Z" fill="#08367A"/>
<path d="M34.642 66.0095H32.2292V68.4224H34.642V66.0095Z" fill="#08367A"/>
<path d="M37.0549 66.0095H34.642V68.4224H37.0549V66.0095Z" fill="#08367A"/>
<path d="M41.8807 66.0095H39.4678V68.4224H41.8807V66.0095Z" fill="#08367A"/>
<path d="M44.2936 66.0095H41.8807V68.4224H44.2936V66.0095Z" fill="#08367A"/>
<path d="M46.7064 66.0095H44.2936V68.4224H46.7064V66.0095Z" fill="#08367A"/>
<path d="M53.9451 66.0095H51.5322L51.5322 68.4224H53.9451V66.0095Z" fill="#08367A"/>
<path d="M56.358 66.0095H53.9451V68.4224H56.358V66.0095Z" fill="#08367A"/>
<path d="M63.5966 66.0095H61.1837V68.4224H63.5966V66.0095Z" fill="#08367A"/>
<path d="M66.0095 66.0095H63.5966V68.4224H66.0095V66.0095Z" fill="#08367A"/>
<path d="M75.661 66.0095H73.2481V68.4224H75.661V66.0095Z" fill="#08367A"/>
<path d="M78.0739 66.0095H75.661V68.4224H78.0739V66.0095Z" fill="#08367A"/>
<path d="M82.8996 66.0095H80.4867V68.4224H82.8996V66.0095Z" fill="#08367A"/>
<path d="M8.10038 68.4224H5.6875V70.8352H8.10038V68.4224Z" fill="#08367A"/>
<path d="M10.5133 68.4224H8.10038V70.8352H10.5133V68.4224Z" fill="#08367A"/>
<path d="M12.9261 68.4224H10.5133V70.8352H12.9261V68.4224Z" fill="#08367A"/>
<path d="M15.339 68.4224H12.9261V70.8352H15.339V68.4224Z" fill="#08367A"/>
<path d="M17.7519 68.4224H15.339V70.8352H17.7519V68.4224Z" fill="#08367A"/>
<path d="M20.1648 68.4224H17.7519V70.8352H20.1648V68.4224Z" fill="#08367A"/>
<path d="M22.5777 68.4224H20.1648V70.8352H22.5777V68.4224Z" fill="#08367A"/>
<path d="M27.4034 68.4224H24.9905V70.8352H27.4034V68.4224Z" fill="#08367A"/>
<path d="M29.8163 68.4224H27.4034V70.8352H29.8163V68.4224Z" fill="#08367A"/>
<path d="M32.2292 68.4224H29.8163V70.8352H32.2292V68.4224Z" fill="#08367A"/>
<path d="M34.642 68.4224H32.2292V70.8352H34.642V68.4224Z" fill="#08367A"/>
<path d="M39.4678 68.4224H37.0549V70.8352H39.4678V68.4224Z" fill="#08367A"/>
<path d="M41.8807 68.4224H39.4678V70.8352H41.8807V68.4224Z" fill="#08367A"/>
<path d="M44.2936 68.4224H41.8807V70.8352H44.2936V68.4224Z" fill="#08367A"/>
<path d="M49.1193 68.4224H46.7064V70.8352H49.1193V68.4224Z" fill="#08367A"/>
<path d="M58.7708 68.4224H56.358V70.8352H58.7708V68.4224Z" fill="#08367A"/>
<path d="M66.0095 68.4224H63.5966V70.8352H66.0095V68.4224Z" fill="#08367A"/>
<path d="M70.8352 68.4224H68.4224V70.8352H70.8352V68.4224Z" fill="#08367A"/>
<path d="M75.661 68.4224H73.2481V70.8352H75.661V68.4224Z" fill="#08367A"/>
<path d="M80.4867 68.4224H78.0739V70.8352H80.4867V68.4224Z" fill="#08367A"/>
<path d="M85.3125 68.4224H82.8996V70.8352H85.3125V68.4224Z" fill="#08367A"/>
<path d="M8.10038 70.8352H5.6875V73.2481H8.10038V70.8352Z" fill="#08367A"/>
<path d="M22.5777 70.8352H20.1648V73.2481H22.5777V70.8352Z" fill="#08367A"/>
<path d="M27.4034 70.8352H24.9905V73.2481H27.4034V70.8352Z" fill="#08367A"/>
<path d="M29.8163 70.8352H27.4034V73.2481H29.8163V70.8352Z" fill="#08367A"/>
<path d="M39.4678 70.8352H37.0549V73.2481H39.4678V70.8352Z" fill="#08367A"/>
<path d="M41.8807 70.8352H39.4678V73.2481H41.8807V70.8352Z" fill="#08367A"/>
<path d="M44.2936 70.8352H41.8807V73.2481H44.2936V70.8352Z" fill="#08367A"/>
<path d="M46.7064 70.8352H44.2936V73.2481H46.7064V70.8352Z" fill="#08367A"/>
<path d="M49.1193 70.8352H46.7064V73.2481H49.1193V70.8352Z" fill="#08367A"/>
<path d="M51.5322 70.8352H49.1193V73.2481H51.5322V70.8352Z" fill="#08367A"/>
<path d="M53.9451 70.8352H51.5322V73.2481H53.9451V70.8352Z" fill="#08367A"/>
<path d="M58.7708 70.8352H56.358V73.2481H58.7708V70.8352Z" fill="#08367A"/>
<path d="M61.1837 70.8352H58.7708V73.2481H61.1837V70.8352Z" fill="#08367A"/>
<path d="M66.0095 70.8352H63.5966V73.2481H66.0095V70.8352Z" fill="#08367A"/>
<path d="M75.661 70.8352H73.2481V73.2481H75.661V70.8352Z" fill="#08367A"/>
<path d="M80.4867 70.8352H78.0739V73.2481H80.4867V70.8352Z" fill="#08367A"/>
<path d="M85.3125 70.8352H82.8996V73.2481H85.3125V70.8352Z" fill="#08367A"/>
<path d="M8.10038 73.2481H5.6875V75.661H8.10038V73.2481Z" fill="#08367A"/>
<path d="M12.9261 73.2481H10.5133V75.661H12.9261V73.2481Z" fill="#08367A"/>
<path d="M15.339 73.2481H12.9261V75.661H15.339V73.2481Z" fill="#08367A"/>
<path d="M17.7519 73.2481H15.339V75.661H17.7519V73.2481Z" fill="#08367A"/>
<path d="M22.5777 73.2481H20.1648V75.661H22.5777V73.2481Z" fill="#08367A"/>
<path d="M27.4034 73.2481H24.9905V75.661H27.4034V73.2481Z" fill="#08367A"/>
<path d="M32.2292 73.2481H29.8163V75.661H32.2292V73.2481Z" fill="#08367A"/>
<path d="M34.642 73.2481H32.2292V75.661H34.642V73.2481Z" fill="#08367A"/>
<path d="M37.0549 73.2481H34.642V75.661H37.0549V73.2481Z" fill="#08367A"/>
<path d="M44.2936 73.2481H41.8807V75.661H44.2936V73.2481Z" fill="#08367A"/>
<path d="M46.7064 73.2481H44.2936V75.661H46.7064V73.2481Z" fill="#08367A"/>
<path d="M51.5322 73.2481H49.1193V75.661H51.5322V73.2481Z" fill="#08367A"/>
<path d="M53.9451 73.2481H51.5322V75.661H53.9451V73.2481Z" fill="#08367A"/>
<path d="M56.358 73.2481H53.9451V75.661H56.358V73.2481Z" fill="#08367A"/>
<path d="M66.0095 73.2481H63.5966V75.661H66.0095V73.2481Z" fill="#08367A"/>
<path d="M68.4224 73.2481H66.0095V75.661H68.4224V73.2481Z" fill="#08367A"/>
<path d="M70.8352 73.2481H68.4224V75.661H70.8352V73.2481Z" fill="#08367A"/>
<path d="M73.2481 73.2481H70.8352V75.661H73.2481V73.2481Z" fill="#08367A"/>
<path d="M75.661 73.2481H73.2481V75.661H75.661V73.2481Z" fill="#08367A"/>
<path d="M78.0739 73.2481H75.661V75.661H78.0739V73.2481Z" fill="#08367A"/>
<path d="M82.8996 73.2481H80.4867V75.661H82.8996V73.2481Z" fill="#08367A"/>
<path d="M8.10038 75.661H5.6875V78.0739H8.10038V75.661Z" fill="#08367A"/>
<path d="M12.9261 75.661H10.5133V78.0739H12.9261V75.661Z" fill="#08367A"/>
<path d="M15.339 75.661H12.9261V78.0739H15.339V75.661Z" fill="#08367A"/>
<path d="M17.7519 75.661H15.339V78.0739H17.7519V75.661Z" fill="#08367A"/>
<path d="M22.5777 75.661H20.1648V78.0739H22.5777V75.661Z" fill="#08367A"/>
<path d="M27.4034 75.661H24.9905V78.0739H27.4034V75.661Z" fill="#08367A"/>
<path d="M29.8163 75.661H27.4034V78.0739H29.8163V75.661Z" fill="#08367A"/>
<path d="M34.642 75.661H32.2292V78.0739H34.642V75.661Z" fill="#08367A"/>
<path d="M37.0549 75.661H34.642V78.0739H37.0549V75.661Z" fill="#08367A"/>
<path d="M41.8807 75.661H39.4678V78.0739H41.8807V75.661Z" fill="#08367A"/>
<path d="M46.7064 75.661H44.2936V78.0739H46.7064V75.661Z" fill="#08367A"/>
<path d="M49.1193 75.661H46.7064V78.0739H49.1193V75.661Z" fill="#08367A"/>
<path d="M53.9451 75.661H51.5322L51.5322 78.0739H53.9451V75.661Z" fill="#08367A"/>
<path d="M56.358 75.661H53.9451V78.0739H56.358V75.661Z" fill="#08367A"/>
<path d="M58.7708 75.661H56.358V78.0739H58.7708V75.661Z" fill="#08367A"/>
<path d="M66.0095 75.661H63.5966V78.0739H66.0095V75.661Z" fill="#08367A"/>
<path d="M73.2481 75.661H70.8352V78.0739H73.2481V75.661Z" fill="#08367A"/>
<path d="M75.661 75.661H73.2481V78.0739H75.661V75.661Z" fill="#08367A"/>
<path d="M85.3125 75.661H82.8996V78.0739H85.3125V75.661Z" fill="#08367A"/>
<path d="M8.10038 78.0739H5.6875V80.4867H8.10038V78.0739Z" fill="#08367A"/>
<path d="M12.9261 78.0739H10.5133V80.4867H12.9261V78.0739Z" fill="#08367A"/>
<path d="M15.339 78.0739H12.9261V80.4867H15.339V78.0739Z" fill="#08367A"/>
<path d="M17.7519 78.0739H15.339V80.4867H17.7519V78.0739Z" fill="#08367A"/>
<path d="M22.5777 78.0739H20.1648V80.4867H22.5777V78.0739Z" fill="#08367A"/>
<path d="M27.4034 78.0739H24.9905V80.4867H27.4034V78.0739Z" fill="#08367A"/>
<path d="M29.8163 78.0739H27.4034V80.4867H29.8163V78.0739Z" fill="#08367A"/>
<path d="M32.2292 78.0739H29.8163V80.4867H32.2292V78.0739Z" fill="#08367A"/>
<path d="M34.642 78.0739H32.2292V80.4867H34.642V78.0739Z" fill="#08367A"/>
<path d="M41.8807 78.0739H39.4678V80.4867H41.8807V78.0739Z" fill="#08367A"/>
<path d="M44.2936 78.0739H41.8807V80.4867H44.2936V78.0739Z" fill="#08367A"/>
<path d="M49.1193 78.0739H46.7064V80.4867H49.1193V78.0739Z" fill="#08367A"/>
<path d="M51.5322 78.0739H49.1193V80.4867H51.5322L51.5322 78.0739Z" fill="#08367A"/>
<path d="M53.9451 78.0739H51.5322L51.5322 80.4867H53.9451V78.0739Z" fill="#08367A"/>
<path d="M58.7708 78.0739H56.358V80.4867H58.7708V78.0739Z" fill="#08367A"/>
<path d="M63.5966 78.0739H61.1837V80.4867H63.5966V78.0739Z" fill="#08367A"/>
<path d="M68.4224 78.0739H66.0095V80.4867H68.4224V78.0739Z" fill="#08367A"/>
<path d="M70.8352 78.0739H68.4224V80.4867H70.8352V78.0739Z" fill="#08367A"/>
<path d="M73.2481 78.0739H70.8352V80.4867H73.2481V78.0739Z" fill="#08367A"/>
<path d="M78.0739 78.0739H75.661V80.4867H78.0739V78.0739Z" fill="#08367A"/>
<path d="M82.8996 78.0739H80.4867V80.4867H82.8996V78.0739Z" fill="#08367A"/>
<path d="M8.10038 80.4867H5.6875V82.8996H8.10038V80.4867Z" fill="#08367A"/>
<path d="M22.5777 80.4867H20.1648V82.8996H22.5777V80.4867Z" fill="#08367A"/>
<path d="M29.8163 80.4867H27.4034V82.8996H29.8163V80.4867Z" fill="#08367A"/>
<path d="M34.642 80.4867H32.2292V82.8996H34.642V80.4867Z" fill="#08367A"/>
<path d="M37.0549 80.4867H34.642V82.8996H37.0549V80.4867Z" fill="#08367A"/>
<path d="M39.4678 80.4867H37.0549V82.8996H39.4678V80.4867Z" fill="#08367A"/>
<path d="M41.8807 80.4867H39.4678V82.8996H41.8807V80.4867Z" fill="#08367A"/>
<path d="M51.5322 80.4867H49.1193V82.8996H51.5322V80.4867Z" fill="#08367A"/>
<path d="M53.9451 80.4867H51.5322V82.8996H53.9451V80.4867Z" fill="#08367A"/>
<path d="M61.1837 80.4867H58.7708V82.8996H61.1837V80.4867Z" fill="#08367A"/>
<path d="M63.5966 80.4867H61.1837V82.8996H63.5966V80.4867Z" fill="#08367A"/>
<path d="M68.4224 80.4867H66.0095V82.8996H68.4224V80.4867Z" fill="#08367A"/>
<path d="M78.0739 80.4867H75.661V82.8996H78.0739V80.4867Z" fill="#08367A"/>
<path d="M85.3125 80.4867H82.8996V82.8996H85.3125V80.4867Z" fill="#08367A"/>
<path d="M8.10038 82.8996H5.6875V85.3125H8.10038V82.8996Z" fill="#08367A"/>
<path d="M10.5133 82.8996H8.10038V85.3125H10.5133V82.8996Z" fill="#08367A"/>
<path d="M12.9261 82.8996H10.5133V85.3125H12.9261V82.8996Z" fill="#08367A"/>
<path d="M15.339 82.8996H12.9261V85.3125H15.339V82.8996Z" fill="#08367A"/>
<path d="M17.7519 82.8996H15.339V85.3125H17.7519V82.8996Z" fill="#08367A"/>
<path d="M20.1648 82.8996H17.7519V85.3125H20.1648V82.8996Z" fill="#08367A"/>
<path d="M22.5777 82.8996H20.1648V85.3125H22.5777V82.8996Z" fill="#08367A"/>
<path d="M29.8163 82.8996H27.4034V85.3125H29.8163V82.8996Z" fill="#08367A"/>
<path d="M39.4678 82.8996H37.0549V85.3125H39.4678V82.8996Z" fill="#08367A"/>
<path d="M46.7064 82.8996H44.2936V85.3125H46.7064V82.8996Z" fill="#08367A"/>
<path d="M49.1193 82.8996H46.7064V85.3125H49.1193V82.8996Z" fill="#08367A"/>
<path d="M58.7708 82.8996H56.358V85.3125H58.7708V82.8996Z" fill="#08367A"/>
<path d="M68.4224 82.8996H66.0095V85.3125H68.4224V82.8996Z" fill="#08367A"/>
<path d="M73.2481 82.8996H70.8352V85.3125H73.2481V82.8996Z" fill="#08367A"/>
<path d="M78.0739 82.8996H75.661V85.3125H78.0739V82.8996Z" fill="#08367A"/>
</g>
<defs>
<clipPath id="clip0_12941_239697">
<rect width="91" height="91" rx="4" fill="white"/>
</clipPath>
</defs>
</svg>
