<svg width="24" height="25" viewBox="0 0 24 25" fill="none" xmlns="http://www.w3.org/2000/svg">
<path d="M17.1003 9.45009C18.6436 10.5573 20.5343 11.2087 22.5763 11.2087V7.26523C22.1899 7.26531 21.8044 7.22487 21.4263 7.14448V10.2486C19.3845 10.2486 17.494 9.59711 15.9503 8.49002V16.5375C15.9503 20.5632 12.6984 23.8265 8.68716 23.8265C7.19049 23.8265 5.79938 23.3724 4.6438 22.5937C5.96271 23.947 7.80203 24.7866 9.83692 24.7866C13.8484 24.7866 17.1005 21.5233 17.1005 17.4974V9.45009H17.1003ZM18.519 5.47161C17.7302 4.60685 17.2123 3.4893 17.1003 2.2538V1.74658H16.0105C16.2848 3.3169 17.2205 4.65849 18.519 5.47161ZM7.18089 19.5044C6.74021 18.9246 6.50207 18.2152 6.50314 17.4859C6.50314 15.6446 7.99054 14.1517 9.8256 14.1517C10.1676 14.1517 10.5075 14.2042 10.8334 14.308V10.2764C10.4526 10.224 10.0682 10.2018 9.68393 10.2099V13.3479C9.35777 13.2441 9.01767 13.1914 8.67559 13.1918C6.84054 13.1918 5.35321 14.6845 5.35321 16.526C5.35321 17.828 6.09667 18.9553 7.18089 19.5044Z" fill="#FF004F"/>
<path d="M15.9503 8.48994C17.4941 9.59703 19.3845 10.2485 21.4263 10.2485V7.1444C20.2866 6.90076 19.2776 6.30302 18.519 5.47162C17.2204 4.65841 16.2848 3.31682 16.0105 1.74658H13.1479V17.4972C13.1414 19.3334 11.6566 20.8202 9.82545 20.8202C8.7464 20.8202 7.78777 20.304 7.18065 19.5044C6.09652 18.9553 5.35306 17.8279 5.35306 16.526C5.35306 14.6847 6.84038 13.1918 8.67544 13.1918C9.02703 13.1918 9.3659 13.2468 9.68378 13.348V10.21C5.74304 10.2917 2.57373 13.5231 2.57373 17.4973C2.57373 19.4812 3.36296 21.2797 4.64389 22.5938C5.79948 23.3724 7.19058 23.8266 8.68725 23.8266C12.6985 23.8266 15.9504 20.5632 15.9504 16.5375V8.48994H15.9503Z" fill="black"/>
<path d="M21.4264 7.14442V6.30511C20.3986 6.30667 19.391 6.01781 18.519 5.47155C19.2909 6.31968 20.3074 6.90449 21.4264 7.14442ZM16.0105 1.7466C15.9844 1.59653 15.9643 1.44547 15.9503 1.29384V0.786621H11.9978V16.5374C11.9915 18.3734 10.5067 19.8602 8.67546 19.8602C8.13783 19.8602 7.63021 19.7321 7.18068 19.5045C7.7878 20.3041 8.74642 20.8202 9.82547 20.8202C11.6564 20.8202 13.1415 19.3335 13.1479 17.4973V1.7466H16.0105ZM9.68397 10.21V9.31651C9.35371 9.27121 9.02074 9.24848 8.68736 9.24864C4.67574 9.24856 1.42383 12.512 1.42383 16.5374C1.42383 19.0611 2.70189 21.2853 4.644 22.5936C3.36307 21.2796 2.57384 19.4811 2.57384 17.4973C2.57384 13.5231 5.74306 10.2917 9.68397 10.21Z" fill="#00F2EA"/>
</svg>
